<?xml version="1.0" encoding="UTF-8" standalone="no"?><!DOCTYPE svg PUBLIC "-//W3C//DTD SVG 1.1//EN" "http://www.w3.org/Graphics/SVG/1.1/DTD/svg11.dtd"><svg width="100%" height="100%" viewBox="0 0 83 44" version="1.1" xmlns="http://www.w3.org/2000/svg" xmlns:xlink="http://www.w3.org/1999/xlink" xml:space="preserve" xmlns:serif="http://www.serif.com/" style="fill-rule:evenodd;clip-rule:evenodd;stroke-linejoin:round;stroke-miterlimit:1.41421;"><path id="Path_1" d="M80.898,16.983c-1.235,-1.389 -3.551,-2.625 -6.947,-3.86c-0.463,-0.154 -1.081,-0.463 -1.853,-0.772c-0.73,-0.232 -1.411,-0.599 -2.007,-1.081c-0.302,-0.269 -0.562,-0.581 -0.772,-0.926c0,-0.154 0,-0.154 -0.154,-0.309l0,-0.771c0,-0.154 0.154,-0.154 0.154,-0.309c0.154,-0.154 0.154,-0.309 0.309,-0.309c0.154,-0.154 0.463,-0.154 0.618,-0.309l1.7,0c0.772,0.154 1.7,0.463 2.779,0.772c0.316,0.079 0.626,0.183 0.926,0.309c0.926,0.309 1.7,0.618 2.161,0.772l0.154,0c0.181,0.123 0.4,0.177 0.618,0.154l0.772,0c0.309,0 0.463,-0.154 0.618,-0.154l0.154,0c0.08,-0.088 0.19,-0.143 0.309,-0.154l0.154,0c0.154,-0.154 0.309,-0.309 0.463,-0.309c0.874,-0.723 1.383,-1.799 1.389,-2.933l0,-0.464c0,-0.154 0,-0.154 -0.154,-0.309l0,-0.154c-0.154,-0.926 -0.309,-1.235 -0.463,-1.389l-0.154,-0.154c-0.21,-0.345 -0.47,-0.657 -0.772,-0.926c-0.309,-0.309 -0.772,-0.618 -1.081,-0.926c-0.929,-0.603 -1.912,-1.12 -2.935,-1.545c-0.154,0 -0.309,-0.154 -0.618,-0.154l-0.154,0c-0.603,-0.178 -1.225,-0.282 -1.853,-0.309l-0.154,0c-2.007,-0.306 -4.056,-0.201 -6.021,0.309c-1.739,0.474 -3.331,1.377 -4.632,2.624c-0.154,0.154 -0.154,0.309 -0.309,0.309c-1.739,1.7 -2.692,4.052 -2.625,6.484c-0.155,1.961 0.583,3.891 2.007,5.249c1.712,1.51 3.706,2.665 5.867,3.4l2.47,0.926c0.94,0.254 1.829,0.671 2.625,1.232c0.577,0.295 0.938,0.896 0.926,1.544l0,0.466c0,0.001 0,0.002 0,0.003c0,0.083 -0.068,0.151 -0.151,0.151c-0.001,0 -0.002,0 -0.003,0l0,0.154c0,0.154 -0.154,0.154 -0.309,0.309l-0.309,0.309c-0.573,0.298 -1.208,0.456 -1.853,0.463l-0.154,0c-1.233,-0.069 -2.441,-0.384 -3.551,-0.926c-0.999,-0.527 -2.031,-0.991 -3.088,-1.389c-0.741,-0.273 -1.545,-0.327 -2.316,-0.154c-0.154,0 -0.309,0 -0.309,0.154c-0.154,0 -0.309,0.154 -0.463,0.154c-0.708,0.333 -1.301,0.871 -1.7,1.544l0,0.154c-0.29,0.406 -0.451,0.89 -0.463,1.389l0,0.618c0.014,0.694 0.172,1.377 0.463,2.007c0,0.001 0,0.002 0,0.003c0,0.083 0.068,0.151 0.151,0.151c0.001,0 0.002,0 0.003,0c0.154,0.154 0.309,0.309 0.309,0.463c0.154,0.154 0.309,0.309 0.309,0.463c1.48,1.366 3.29,2.324 5.252,2.78c0.154,0 0.154,0 0.309,0.154c0.348,0.117 0.714,0.169 1.081,0.154c0.309,0 0.463,0.154 0.772,0.154c0.463,0 0.926,0.154 1.235,0.154c0.463,0 1.081,0.154 1.544,0.154l0.926,0c0.571,0.026 1.143,-0.026 1.7,-0.154c0.381,-0.009 0.753,-0.115 1.081,-0.309c1.742,-0.422 3.374,-1.212 4.786,-2.316c1.087,-0.916 1.935,-2.083 2.47,-3.4c0.6,-1.308 0.915,-2.729 0.926,-4.168c0.024,-1.97 -0.758,-3.866 -2.163,-5.247Z" style="fill:#fff;fill-rule:nonzero;"/><path id="Path_2" d="M55.116,21.305c-1.457,-0.328 -2.987,0.012 -4.168,0.926c-0.398,0.278 -0.81,0.536 -1.235,0.772l-0.154,0.154c-1.163,0.571 -2.417,0.937 -3.705,1.081l-0.772,0c-1.097,-0.002 -2.188,-0.158 -3.242,-0.463c-0.577,-0.191 -1.104,-0.507 -1.544,-0.926c-1.279,-0.959 -2.203,-2.318 -2.625,-3.86l16.673,0c1.062,0.102 2.122,-0.232 2.933,-0.926c0.693,-0.872 1.025,-1.978 0.926,-3.088c0.01,-2.586 -0.627,-5.134 -1.853,-7.411c-1.22,-2.299 -3.101,-4.18 -5.4,-5.4l-0.926,-0.463c-2.415,-1.434 -5.256,-1.982 -8.031,-1.547c-0.163,0.02 -0.321,0.073 -0.463,0.157c-7.749,1.146 -13.521,7.912 -13.432,15.745c0,4.323 1.081,7.719 3.4,10.5c1.529,1.815 3.422,3.288 5.558,4.323c2.195,0.932 4.558,1.404 6.942,1.387l2.316,0c2.806,-0.096 5.553,-0.836 8.028,-2.161c0.772,-0.463 1.389,-0.926 2.161,-1.389c2.627,-2.316 2.318,-6.485 -1.387,-7.411Zm-11.888,-13.894c2.933,0 4.94,1.7 5.867,5.095c-0.007,0.216 0.046,0.43 0.154,0.618l-11.425,0c0.026,-0.692 0.183,-1.373 0.463,-2.007c0.154,-0.309 0.154,-0.463 0.309,-0.618c0.801,-1.847 2.619,-3.059 4.632,-3.088Z" style="fill:#fff;fill-rule:nonzero;"/><path id="Path_3" d="M28.716,4.014l0,-0.463c0,-0.309 -0.154,-0.463 -0.154,-0.772l0,-0.154c-0.467,-1.016 -1.381,-1.758 -2.471,-2.007c-0.154,0 -0.154,0 -0.309,-0.154c-0.154,0 -0.154,0 -0.309,-0.154c-0.237,-0.125 -0.506,-0.18 -0.773,-0.156l-0.309,0c-0.46,-0.077 -0.931,-0.077 -1.391,0l-0.154,0c-0.154,0 -0.309,0 -0.309,0.154c-0.502,0.164 -0.937,0.49 -1.235,0.926l-0.154,0.154c-0.269,0.261 -0.48,0.577 -0.618,0.926l-0.926,1.853l-5.246,12.97l-5.249,-12.969c-0.405,-1.11 -0.979,-2.152 -1.7,-3.088c-0.573,-0.684 -1.421,-1.08 -2.314,-1.08c-1.257,0.05 -2.48,0.423 -3.551,1.081c-0.959,0.597 -1.544,1.649 -1.544,2.779c-0.018,0.962 0.194,1.915 0.618,2.779l9.108,21.614l-3.86,9.109c-0.352,0.888 -0.56,1.826 -0.618,2.779c0.132,1.13 0.754,2.147 1.7,2.779c0.972,0.744 2.173,1.126 3.396,1.08c1.7,0 2.933,-1.081 3.705,-3.088l13.586,-32.266c0.578,-1.485 0.942,-3.045 1.081,-4.632Z" style="fill:#fff;fill-rule:nonzero;"/></svg>